<?xml version="1.0" encoding="UTF-8" standalone="no"?><!DOCTYPE svg PUBLIC "-//W3C//DTD SVG 1.1//EN" "http://www.w3.org/Graphics/SVG/1.1/DTD/svg11.dtd"><svg width="100%" height="100%" viewBox="0 0 534 267" version="1.1" xmlns="http://www.w3.org/2000/svg" xmlns:xlink="http://www.w3.org/1999/xlink" xml:space="preserve" xmlns:serif="http://www.serif.com/" style="fill-rule:evenodd;clip-rule:evenodd;stroke-linejoin:round;stroke-miterlimit:2;">
	<style>
        #Neuro-Text {
            fill: #000000; /* Black for light mode */
        }
        @media (prefers-color-scheme: dark) {
            #Neuro-Text {
                fill: #00ff00; /* Bright green for dark mode */
            }
        }
    </style>
	<g id="Text"><path id="Neuro-Text" d="M46.405,65.322l-0,-0.127l0.127,-0l-0.127,0.127Zm4.841,-0.127l9.428,-0l-14.269,14.269l-0,-9.428l4.841,-4.841Zm13.688,0.454l2.835,6.593l-21.364,21.364l-0,-9.428l18.529,-18.529Zm4.252,9.89l2.835,6.593l-10.381,10.381l-1.068,-2.457l-0,-0.139l-0.278,-0l-0,3.942l-13.889,13.889l-0,-9.428l22.781,-22.781Zm4.252,9.89l2.835,6.593l-10.346,10.346l-2.858,-6.57l10.369,-10.369Zm34.227,-20.085c0.178,-0.007 0.36,-0.01 0.545,-0.01c3.138,-0 5.072,0.984 6.078,2.815l-13.038,13.038l0.016,-8.909c-0,-0.185 0.003,-0.367 0.01,-0.545l6.389,-6.389Zm7.487,6.655c0.002,0.092 0.003,0.185 0.003,0.279l-0,9.147l-13.931,13.93l0.017,-9.445l13.911,-13.911Zm0.003,14.14l-0,9.428l-13.956,13.956l0.017,-9.446l13.939,-13.938Zm35.086,-20.944l57.831,-0c3.611,-0 6.944,1.944 6.944,6.944c-0,5 -3.333,6.945 -6.944,6.945l-47.778,-0l-0,33.194l20.416,-0c3.612,-0 6.945,1.944 6.945,6.944c-0,5 -3.333,6.945 -6.945,6.945l-20.416,-0l-0,33.194l47.778,0c3.611,0 6.944,1.945 6.944,6.945c-0,0.715 -0.068,1.368 -0.196,1.962l-4.771,4.771c-0.636,0.143 -1.302,0.211 -1.977,0.211l-61.667,0l-0,-104.219l3.836,-3.836Zm96.164,71.488l-0,-64.544c-0,-4.444 1.944,-6.944 6.944,-6.944c5,-0 6.945,2.5 6.945,6.944l-0,50.655l-13.889,13.889Zm54.722,-54.722l0,-9.822c0,-4.444 1.945,-6.944 6.945,-6.944c3.48,-0 5.48,1.211 6.374,3.447l-13.319,13.319Zm13.889,-9.175l-0,9.428l-13.889,13.889l0,-9.428l13.889,-13.889Zm-0,14.142l-0,9.428l-13.889,13.889l0,-9.428l13.889,-13.889Zm35.876,-21.733l9.428,-0l-13.915,13.915l-0,-9.428l4.487,-4.487Zm14.142,-0l9.428,-0l-13.889,13.889l-0.279,-0l-0,0.279l-13.889,13.889l-0,-9.428l18.629,-18.629Zm14.142,-0l9.428,-0l-13.889,13.889l-9.428,-0l13.889,-13.889Zm14.141,0.001c2.716,0.029 5.426,0.532 7.965,1.463l-12.425,12.425l-9.428,-0l13.888,-13.888Zm11.206,2.936c1.982,1.09 3.79,2.467 5.326,4.102l-9.72,9.72c-1.401,-1.917 -4.069,-2.585 -6.638,-2.79l11.032,-11.032Zm7.408,6.734c1.301,1.977 2.249,4.221 2.729,6.699l-13.535,13.535c0.001,-0.06 0.002,-0.121 0.002,-0.183l0,-9.247l10.804,-10.804Zm3.085,11.057l-0,8.994c-0,0.147 -0.001,0.293 -0.004,0.438l-19.142,19.142c-0.926,0.095 -1.861,0.142 -2.798,0.142l-6.772,0l28.716,-28.716Zm-0.858,15c-1.856,6.093 -6.539,10.18 -12.213,12.213l12.213,-12.213Zm-25.576,25.577l3.878,5.55l-9.865,9.865l-3.884,-5.545l9.871,-9.87Zm5.817,8.325l17.145,24.536c1.528,2.084 3.472,4.723 3.472,7.361c-0,3.889 -3.194,6.528 -7.083,6.528c-2.778,0 -4.584,-1.666 -6.111,-3.889l-17.285,-24.674l9.862,-9.862Zm-34.508,34.507c-0.544,1.736 -1.666,2.931 -3.512,3.512l3.512,-3.512Zm-8.483,3.77c-2.832,-0.474 -4.319,-2.071 -4.813,-4.616l13.699,-13.698l-0,9.428l-8.886,8.886Zm-5.003,-9.14l-0,-9.428l13.889,-13.889l-0,9.429l-13.889,13.888Zm-0,-14.142l-0,-9.428l13.889,-13.889l-0,9.428l-13.889,13.889Zm-0,-14.142l-0,-9.428l25.5,-25.5l9.428,0l-16.215,16.215l-1.63,-2.326l-3.194,0l-0,7.15l-13.889,13.889Zm-32.384,22.956c-0.759,2.594 -2.066,5.047 -4.283,7.533c-2.854,3.181 -5.9,5.068 -9.335,6.085l13.618,-13.618Zm-19.267,14.553c-0.728,0.043 -1.474,0.063 -2.238,0.063l-7.253,0l29.753,-29.753l-0,6.142c-0,1.168 -0.023,2.29 -0.089,3.375l-20.173,20.173Zm-14.205,0.063l-9.429,0l13.889,-13.889l7.507,0c0.719,0 1.386,-0.025 2.005,-0.083l-13.972,13.972Zm-14.068,-0.075c-2.793,-0.181 -5.334,-0.706 -7.694,-1.733l12.08,-12.081l9.428,0l-13.814,13.814Zm-10.733,-3.408c-1.408,-0.956 -2.757,-2.142 -4.065,-3.6c-0.285,-0.319 -0.554,-0.637 -0.809,-0.955l10.085,-10.084c0.845,2.56 2.542,3.706 5.345,4.083l-10.556,10.556Zm-6.776,-7.366c-1.277,-2.295 -1.94,-4.637 -2.27,-7.159l13.592,-13.591l-0,7.988c-0,0.493 0.009,0.963 0.029,1.411l-11.351,11.351Zm-2.558,-11.584c-0.006,-0.388 -0.009,-0.78 -0.009,-1.178l-0,-8.242l13.889,-13.889l-0,9.428l-13.88,13.881Zm-131.259,-50.536l-0,73.108l-18.333,0l-16.605,-38.171l10.231,-10.231l10.54,24.513l0.139,0l0.064,-35.255l13.964,-13.964Zm-54.861,54.861l-0,11.164c-0,4.444 -1.945,6.944 -6.945,6.944c-3.98,0 -6.024,-1.584 -6.692,-4.472l13.637,-13.636Zm-13.889,9.175l-0,-9.428l13.889,-13.889l-0,9.428l-13.889,13.889Zm-0,-14.142l-0,-9.429l13.889,-13.888l-0,9.428l-13.889,13.889Zm-0,-14.143l-0,-9.428l13.889,-13.889l-0,9.428l-13.889,13.889Zm-0,-14.142l-0,-9.428l13.889,-13.889l-0,9.428l-13.889,13.889Zm31.286,-26.572l2.835,6.593l-10.312,10.312l-2.858,-6.57l10.335,-10.335Zm4.252,9.89l2.835,6.593l-10.277,10.277l-2.858,-6.57l10.3,-10.3Zm4.253,9.89l2.835,6.593l-10.243,10.242l-2.858,-6.57l10.266,-10.265Zm228.82,-14.028l-0,9.429l-13.889,13.888l0,-9.428l13.889,-13.889Zm45.278,-16.993l-0,9.428l-13.889,13.889l-0,-9.428l13.889,-13.889Zm-45.278,31.136l-0,9.428l-13.889,13.889l0,-9.429l13.889,-13.888Zm45.278,-16.994l-0,2.531l6.897,0l-20.786,20.786l-0,-9.428l13.889,-13.889Zm21.292,16.42l-1.292,0l0.531,0.761l-9.882,9.882l-3.883,-5.545l18.987,-18.987l5.08,0c1.405,0 3.1,-0.036 4.693,-0.344l-14.234,14.233Zm1.178,3.536l3.879,5.55l-9.874,9.873l-3.884,-5.544l9.879,-9.879Zm-81.812,34.672c0.118,-0.939 0.175,-2.003 0.175,-3.208l0,-6.395l13.889,-13.889l-0,9.428l-14.064,14.064Zm151.067,-14.618l-1.031,-2.062c-2.778,-5.695 -4.583,-9.861 -4.583,-16.528c-0,-5.972 0.972,-10 3.611,-15.417l13.889,-27.638c3.333,-6.528 9.028,-11.389 16.805,-11.389c7.778,-0 13.473,4.861 16.806,11.389l5.401,10.748l-10.322,10.322l-7.162,-14.404c-1.111,-2.222 -1.806,-4.166 -4.723,-4.166c-2.916,-0 -3.611,1.944 -4.722,4.166l-12.5,25.139c-2.083,4.028 -3.194,6.667 -3.194,11.25c-0,3.285 0.689,5.651 1.964,8.352l-10.239,10.238Zm52.475,-47.76l3.153,6.275l-10.356,10.355l-3.131,-6.297l10.334,-10.333Zm4.729,9.412l2.182,4.341c0.332,0.682 0.638,1.343 0.919,1.987l-11.289,11.289c-0.246,-2.71 -0.984,-4.79 -2.172,-7.256l10.36,-10.361Zm4.397,9.746c0.82,2.58 1.238,5.103 1.358,8.07l-21.424,21.424l5.212,-10.315c1.126,-2.251 1.874,-4.201 2.19,-6.515l12.664,-12.664Zm1.276,12.866c-0.446,5.102 -2.104,8.836 -4.463,13.674l-0.218,0.435l-35.603,35.604c-2.2,-0.804 -4.138,-2.042 -5.825,-3.604l9.807,-9.807c0.568,0.353 1.255,0.566 2.116,0.566c2.778,0 3.75,-2.222 4.723,-4.166l3.307,-6.545l26.156,-26.157Zm-9.395,23.537l-7.846,15.692c-0.735,1.471 -1.579,2.854 -2.533,4.116l-4.095,4.095c-2.827,2.081 -6.254,3.317 -10.317,3.317c-0.788,0 -1.552,-0.046 -2.292,-0.136l27.083,-27.084Zm-38.968,20.112c-1.051,-1.343 -1.972,-2.83 -2.767,-4.42l-0.747,-1.494l10.305,-10.305l2.664,5.272c0.164,0.327 0.327,0.662 0.499,0.993l-9.954,9.954Zm-5.085,-9.056l-3.143,-6.286l10.272,-10.273l3.165,6.264l-10.294,10.295Zm-4.715,-9.429l-3.142,-6.285l10.239,-10.24l3.165,6.264l-10.262,10.261Z"/></g></svg>
